<?xml version="1.0" encoding="utf-8"?>
<!-- Generator: Adobe Illustrator 16.0.0, SVG Export Plug-In . SVG Version: 6.00 Build 0)  -->
<!DOCTYPE svg PUBLIC "-//W3C//DTD SVG 1.1//EN" "http://www.w3.org/Graphics/SVG/1.1/DTD/svg11.dtd">
<svg version="1.1" id="Layer_1" xmlns="http://www.w3.org/2000/svg" xmlns:xlink="http://www.w3.org/1999/xlink" x="0px" y="0px"
	 width="192.756px" height="62px" viewBox="0 0 192.756 62" enable-background="new 0 0 192.756 62" xml:space="preserve">
<g>
	<path fill-rule="evenodd" clip-rule="evenodd" d="M170.855,21.724h5.643c-0.625,0.485-1,1.079-1,1.892v19.431
		c0,0.813,0.391,1.391,1,1.875h-5.643c0.609-0.484,0.984-1.078,0.984-1.875V23.616C171.84,22.803,171.48,22.209,170.855,21.724
		L170.855,21.724z"/>
	<path fill-rule="evenodd" clip-rule="evenodd" d="M40.064,30.072c-0.922-1.985-1.938-3.939-3.642-5.362
		c-1.813-1.532-4.111-2.454-6.487-2.454c-6.315,0-9.145,5.706-9.145,11.316c0,5.426,2.704,10.912,8.8,10.912
		c2.486,0,4.909-1.078,6.44-3.033v-4.377c0-1.188-0.391-1.953-1.313-2.656h6.456c-0.688,0.781-1.11,1.578-1.11,2.656v4.377
		c-2.954,2.752-6.627,4.439-10.708,4.439c-7.206,0-13.099-5.299-13.099-12.677c0-7.332,5.815-12.349,12.927-12.349
		c4.424,0,8.003,1.625,10.879,4.893V30.072L40.064,30.072z"/>
	<path fill-rule="evenodd" clip-rule="evenodd" d="M55.884,21.724h6.081c-0.829,0.61-1.11,1.298-1.11,2.314v14.177
		c0,3.893,4.564,5.801,7.91,5.801c3.282,0,7.565-1.924,7.565-5.721V24.038c0-0.954-0.234-1.61-0.875-2.314h3.314
		c-0.672,0.688-0.922,1.376-0.922,2.314v14.257c0,5.127-6.05,7.096-10.239,7.096c-4.314,0-10.614-1.906-10.614-7.176V24.038
		C56.994,23.069,56.603,22.35,55.884,21.724L55.884,21.724z"/>
	<path fill-rule="evenodd" clip-rule="evenodd" d="M116.785,30.15c-0.813-2.048-1.767-3.845-3.438-5.331
		c-1.798-1.594-3.986-2.595-6.409-2.595c-6.253,0-9.457,5.471-9.457,11.146c0,5.705,3.329,11.098,9.504,11.098
		c4.596,0,7.878-3.236,9.801-7.129v4.221c-2.86,2.83-6.55,4.268-10.583,4.268c-7.472,0-13.068-4.83-13.068-12.537
		c0-7.486,5.377-12.411,12.708-12.411c4.064,0,8.004,1.407,10.942,4.205V30.15L116.785,30.15z"/>
	<path fill-rule="evenodd" clip-rule="evenodd" d="M155.989,30.15c-0.813-2.048-1.766-3.845-3.438-5.331
		c-1.798-1.594-3.986-2.595-6.409-2.595c-6.253,0-9.441,5.471-9.441,11.146c0,5.705,3.313,11.098,9.488,11.098
		c4.596,0,7.895-3.236,9.801-7.129v4.221c-2.86,2.83-6.534,4.268-10.582,4.268c-7.472,0-13.068-4.83-13.068-12.537
		c0-7.486,5.377-12.411,12.708-12.411c4.064,0,8.004,1.407,10.942,4.205V30.15L155.989,30.15z"/>
</g>
</svg>
