<?xml version="1.0" encoding="UTF-8"?>
<!-- Generator: Adobe Illustrator 26.1.0, SVG Export Plug-In . SVG Version: 6.00 Build 0)  -->
<svg xmlns="http://www.w3.org/2000/svg" xmlns:xlink="http://www.w3.org/1999/xlink" version="1.1" id="Layer_1" x="0px" y="0px" viewBox="0 0 715.4 124.6" style="enable-background:new 0 0 715.4 124.6;" xml:space="preserve">
<style type="text/css">
	.st0{fill:none;stroke:#000000;stroke-width:0.216;stroke-miterlimit:10;}
</style>
<path d="M642.7,13.2c2.5,0,7.7,0.3,13.4,0.3c7,0,10.1-0.3,13-0.3c0.3,0.5,0.3,2.6-0.1,2.9c-1.9,0.3-3.9,0.6-5,0.9  c-2.1,0.6-2.8,1.5-2.9,4.8c-0.2,3.9-0.1,9.2-0.1,19.4c0,0.4,0.2,0.9,0.5,1c0.7,0.1,2.6,0.2,17.7,0.2c11.5-0.1,15.4-0.1,16.4-0.2  c0.3,0,0.6-0.4,0.6-0.6c0-5.4,0-17.2-0.2-21c-0.1-1.7-0.6-2.9-2.1-3.4c-1.6-0.5-3.4-0.8-6.2-1.1c-0.5-0.4-0.4-2.5,0.1-3  c2.4,0,7.5,0.4,13,0.4c5.2,0,11.3-0.3,12.9-0.3c0.3,0.4,0.4,2.5,0,2.9c-2.3,0.3-4.1,0.6-5.4,1c-2.3,0.7-2.7,1.9-2.9,5.6  c-0.2,3.7-0.2,9.8-0.2,22.2c0,9.1,0,20.5,0.2,24.1c0.3,2.9,0.9,4.1,2.9,4.7c1.5,0.5,3.4,0.8,6.7,1.1c0.1,0.1,0.2,0.5,0.2,1  c0,0.8-0.2,1.8-0.6,2c-3.1,0-8.7-0.3-14-0.3c-5.3,0-10.5,0.2-13.2,0.3c-0.4-0.4-0.4-2.5,0-3c2.7-0.3,4.3-0.5,5.9-1  c1.9-0.5,2.5-1.6,2.7-4.8c0.1-3,0.1-14.4,0.1-21c0-0.3-0.3-0.7-0.6-0.7c-2-0.1-10.8-0.1-16.6-0.1c-8.1,0-16.7,0-17.7,0.1  c-0.2,0-0.3,0.5-0.3,0.6c0,5.7,0,17.7,0.1,19.9c0.2,3.5,0.6,5,3.2,5.7c1.6,0.4,3.1,0.8,6.3,1.3c0.4,0.5,0,2.8-0.4,3  c-2,0-6.9-0.3-13.6-0.3c-6.2,0-11.8,0.3-13.9,0.3c-0.4-0.4-0.4-2.6-0.1-3c2.5-0.3,4.2-0.6,5.6-0.9c3-0.9,3.3-2.8,3.7-7.6  c0-3.5,0.1-12.4,0.1-21.5c0-10.1-0.1-21.2-0.2-23.1c-0.2-2.9-0.8-4.1-2.9-4.6c-1.6-0.5-3.4-0.7-6.3-1.1  C642.2,15.7,642.3,13.6,642.7,13.2z M605,72.9c2.6,2,6.3,2.8,10.2,2.8c5.3,0,11.2-3.1,11.2-11c0-6.9-4.3-10.1-13.7-15.6  c-9.3-5.3-15.5-10.4-15.5-19.8c0-11.2,9.2-17.6,20.5-17.6c7.2,0,11.5,1.4,15.9,1.8c-0.7,3.4-1.4,9.3-1.8,14.4  c-0.3,0.6-2.7,0.6-3,0.1c-0.6-6.2-1.6-9.1-4.1-10.7c-2.3-1.7-5.3-2.2-8.4-2.2c-7.2,0-10.8,5.5-11,10.6c0,5.8,2.7,8.9,7.1,11.9  c4.2,2.7,9.4,5.2,12.9,7.3c5.4,3.4,10,7.8,10,15.4c0,10.2-8.4,19.3-23.2,19.3c-6.3,0-12.5-2-15-3.2c-0.9-1.4-2.6-12.1-2.9-15.6  c0.2-0.6,2.7-1.3,3.2-0.9C599.3,66.2,601.4,70.4,605,72.9z M527.1,70.1c-6.3-6.9-9-15.6-9-25c0-7.7,2.3-14.4,6.5-20.1  c5.7-7.9,17.1-13.2,27.9-13.2c21.3,0,32,15.5,32,32.5c0,9.2-2.1,15.8-6.4,21.7c-6.5,9-17,13.7-27.4,13.7  C540.6,79.5,532.5,75.9,527.1,70.1z M565.8,71.3c6.5-5.2,8.8-13.9,8.8-23.5c0-11.3-3.8-22.1-12-27.9c-3.8-2.6-8.2-4.2-13.7-4.2  c-3.6,0-6.8,0.8-9.4,2.3c-7.6,4.5-11.2,13.9-11.2,24.5c0,11,4.1,22.8,13.2,28.8c3.7,2.3,7.7,3.5,13,3.5C559,75,563,73.6,565.8,71.3z   M461.7,49.4c-2.5,1.7-4.8,3.5-7,5.5V56c0.3,6.2,0.5,12.4,0.5,18.6c1.1-0.2,2-0.3,2.7-0.5c2.5-0.5,3.3-1.8,3.5-5.7  C461.5,66.4,461.6,56.1,461.7,49.4z M324.7,13.2c2.6,0,8.1,0.3,12.9,0.3c3.5,0,10.3-0.2,11.6-0.3c0.5,0.3,0.6,2.5,0.1,2.9  c-1.1,0.2-3,0.5-3.8,0.7c-1.4,0.4-1.5,1.5-0.7,2.9c2.7,5.8,11,21.7,13.1,25.3c0.1,0,0.5,0,0.6-0.1c3.6-5.9,11-19.2,12.9-24  c0.9-2,0.8-3.4-2.1-4.1c-1.4-0.3-2.6-0.4-4.9-0.8c-0.4-0.5-0.2-2.7,0.3-2.9c3.1,0.1,7.8,0.3,11.5,0.3c4.5,0,7-0.1,10-0.3  c0.1-3.4,0.3-6.8,0.5-10.2c0.1-1.5,1.3-2.7,2.8-2.9h0.9c1.7,0.2,3,1.7,2.8,3.5c0,0.1-0.1,0.2-0.1,0.4V4c-1.4,6.9-2.2,14.1-2.7,21.4  c-0.6,7.2-0.9,14.4-1,21.7c-0.2,7.2-0.1,14.5-0.1,21.7c0,1,0,2.1,0.1,3c0.8-3.2,1.7-6.4,2.7-9.5c1.5-4.6,3-9.2,5.2-13.6  c1.1-2.2,2.4-4.4,4.3-6.4c1-1,2.1-1.8,3.5-2.4c0.7-0.3,1.5-0.4,2.3-0.4c0.8,0,1.6,0.1,2.4,0.3v0.1c0.1,0,0.2,0.1,0.3,0.1  c1.3,0.7,2.1,1.8,2.8,2.8c0.6,1.1,1,2.2,1.4,3.3c0.6,2.1,0.9,4.3,1,6.4c1.4-1,2.9-2.1,4.4-3c3.1-2,6.5-3.8,10-5.1  c-0.1-0.3-0.2-0.6-0.2-0.9c-0.4-1.2,0.3-2.4,1.5-2.7c1.1-0.3,2.3,0.3,2.7,1.5c0,0.1,0,0.1,0,0.1c0.6,2.7,0.6,5.2,0.6,7.6  c0,2.5-0.1,5-0.4,7.3c-0.1,1.3-0.1,2.4-0.1,3.4c0.1,0.4,0.1,0.7,0.1,1c0.2-0.1,0.4-0.4,0.7-0.5c0.4-0.4,0.8-0.8,1.2-1.3  c0.7-0.8,1.4-1.8,2.1-2.7c2.7-3.8,5.2-8,7.5-12.3c2.2-4.2,4.3-8.6,5.5-13.2l0.1-0.1c0.4-0.8,1.3-1.1,2.1-0.7  c0.6,0.3,0.9,0.9,0.9,1.5c-0.2,3.9,0,7.9,0.1,11.9l0.4,9.4c2.2-2,4.6-3.7,7.1-5.3c0-0.8,0-1.6,0-2.2c0-10.6,0-21.1-0.1-24.3  c-0.1-2.9-0.8-4.2-3.4-4.8c-1.6-0.3-3.5-0.6-5.6-0.8c-0.4-0.4-0.2-2.7,0.2-2.9c2.5,0,8.8,0.3,12,0.3c7.7,0,13.1-0.2,17.3-0.2  c12.2,0,18.7,7.3,18.7,16.1s-5.6,14-11.9,16.8c-0.2,0.2-0.3,0.5-0.2,0.7c3.6,5.8,11.9,17.3,17,22.5c4.3,4.4,5.7,4.9,12,5.7  c0.2,0.3,0,2.7-0.6,2.9c-4.5,0.2-12.8-0.1-16.7-2c-1.6-0.7-3.2-2-5-4.2c-4-4.7-10.3-15.1-14.3-20.8c-0.7-1-1.8-1.6-2.6-1.6  c-1.5-0.2-5.9-0.1-7.4-0.1c-0.2,0-0.4,0.5-0.4,0.6c0,5.7,0,15.4,0.2,18.9c0.2,3.5,0.9,4.5,3.3,5c1.6,0.3,3.4,0.6,5.8,0.9  c0.5,0.4,0.3,2.6-0.2,3c-2,0-7-0.3-13.9-0.3c-4.7,0-8.2,0.1-10.7,0.2c0,0.6,0,1.3,0,1.9c-0.1,8-0.4,16-1.6,23.9  c-0.6,4-1.3,8-2.6,11.9c-0.7,2-1.4,3.9-2.7,5.8c-0.7,0.9-1.5,1.8-2.6,2.4c-0.6,0.4-1.3,0.6-1.9,0.7c-0.3,0.1-0.7,0.1-1,0.1  c-0.4,0-0.7-0.1-1-0.1c-1.5-0.5-2.3-1.5-3-2.4c-0.7-0.9-1.2-1.8-1.6-2.7c-0.8-1.9-1.4-3.9-1.9-5.8c-0.9-4-1.3-8-1.4-12  c-0.1-8,1.1-16,3.9-23.6c2.7-7.5,6.9-14.5,12.5-20.2c0.4-0.4,0.7-0.7,1.2-1.2c0-0.1,0-0.1,0-0.3c0-3.9-0.1-7.9-0.2-11.8  c0-2.3-0.1-4.5-0.2-6.8c-1.6,2.7-3,5.5-4.4,8.3c-1,2.1-2.1,4.3-3.3,6.4c-1.1,2.1-2.3,4.3-3.5,6.4c-0.7,1-1.3,2.1-2.1,3.1  c-0.4,0.5-0.8,1-1.3,1.5c-0.5,0.5-1,1-1.9,1.4c-0.4,0.2-1.2,0.4-2,0.1c-0.7-0.4-1.1-1-1.3-1.3c-0.4-0.9-0.5-1.6-0.6-2.3  c-0.1-1.3-0.1-2.7-0.1-3.8c0-2.4,0-4.8-0.1-7.2c-0.1-1.5-0.2-2.9-0.5-4.3c-3.3,1.3-6.4,3.1-9.4,5c-1.8,1.2-3.5,2.4-5.1,3.7  c0.1,3.7-0.2,7.4-0.7,11c-0.4,2.1-0.8,4.2-1.4,6.4c-0.4,1-0.7,2.1-1.3,3.2c-0.5,1-1.1,1.8-1.7,2.7c-1.3,1.8-2.6,3.5-4.7,4.9  c-0.5,0.4-1,0.7-1.7,0.8c-0.7,0.1-1.5,0.1-2.2-0.1c-0.7-0.3-1.3-0.8-1.7-1.4c-0.4-0.5-0.7-1.2-0.8-1.8c-0.6-2.4-0.3-4.6,0.1-6.7  c0.5-2.1,1.3-4.2,2.4-6.1c2.1-3.8,4.9-7.1,7.9-10c0.9-0.9,1.8-1.7,2.7-2.5c0-0.7,0-1.3-0.1-2c-0.1-2-0.5-4-1-5.8  c-0.6-1.7-1.5-3.3-2.6-4c-0.7-0.1-1.5-0.1-2.1,0.2c-0.8,0.3-1.6,0.9-2.2,1.6c-1.4,1.6-2.5,3.5-3.5,5.5c-2,4.1-3.4,8.6-4.6,13.1  c-1.2,4.5-2.1,9.1-3,13.7c-0.4,2.3-0.7,4.7-1.1,6.9l-1,7.2l-0.4,1.1c-0.7,1.6-2.5,2.3-4.1,1.6c-1.4-0.5-2.1-2-1.8-3.4  c0-0.2,0.1-0.5,0.1-0.7c0-0.1,0-0.2,0.1-0.3c0.5-3.3,0.8-6.6,1-9.8c0.2-3.7,0.3-7.3,0.3-10.9L386.1,47c-0.1-7.2-0.1-14.6,0-21.9  c0-2.9,0.1-5.8,0.1-8.8l-3.1,0.6c-3.1,0.8-4.6,2.4-7.3,6.7c-4.5,7-12.2,20.7-14.6,25.3c-0.4,0.9-0.8,2.7-0.8,3.7  c0,4.1,0.1,9.3,0.2,14.6c0.1,4.6,0.6,6.3,3.4,6.9c1.7,0.4,3.5,0.6,6.4,0.9c0.3,0.4,0.1,2.6-0.3,2.9c-2.6,0-8.3-0.3-14.4-0.3  c-7.4,0-12.1,0.3-15,0.3c-0.4-0.3-0.4-2.6,0-2.9c2.7-0.3,5.3-0.6,7.1-1c2.8-0.7,3.4-2.5,3.5-5.7c0.1-5.1,0.1-9,0.1-13.5  c0-1.5-0.3-3.8-0.8-5c-2.2-5-8.3-16.5-12.5-24.1c-4.1-7.1-5-7.9-8.8-8.9c-1.3-0.3-2.6-0.4-4.8-0.7C324.2,15.7,324.3,13.6,324.7,13.2  z M412.6,56.9c-0.5,0.5-1.1,1-1.6,1.6c-3,2.9-5.6,6.1-7.5,9.8c-1,1.8-1.6,3.7-2,5.6c-0.4,1.9-0.6,4-0.1,5.7c0.2,0.9,0.7,1.6,1.2,1.7  c0.4,0.1,1.3-0.1,2-0.6c1.5-1,2.7-2.6,3.8-4.3c0.5-0.8,1-1.7,1.5-2.6c0.4-0.8,0.7-1.8,1-2.7c0.5-1.9,0.9-4,1.1-6  C412.4,62.4,412.6,59.6,412.6,56.9z M451.2,79.7c0.1-7.2,0.3-14.6,0.3-21.8c-0.1,0.1-0.3,0.2-0.4,0.4c-5.3,5.8-9.4,12.6-11.9,20  c-2.6,7.4-3.7,15.2-3.4,23.1c0.2,3.8,0.7,7.8,1.7,11.5c0.5,1.8,1.1,3.7,2,5.4c0.4,0.8,0.9,1.6,1.4,2.3c0.5,0.7,1.2,1.2,1.6,1.3  c0.1,0,0.3,0.1,0.4,0.1c0.1,0,0.3-0.1,0.4-0.1c0.4-0.1,0.7-0.1,1-0.4c0.5-0.4,1.1-1,1.6-1.7c0.9-1.5,1.6-3.3,2.1-5  c1-3.7,1.6-7.5,1.9-11.5C450.7,95.5,451,87.6,451.2,79.7z M471.5,17.4c-0.3,0.2-0.7,1-0.7,1.6c-0.2,3.5-0.2,17.7-0.2,25.9  c0,0.2,0.2,0.5,0.5,0.5c7,0.2,11.5,0,13.5-0.8c3.3-1.6,6.8-5.3,6.8-12.1c0-9.8-5-15.5-16.2-15.5C474.3,16.9,472.5,17,471.5,17.4z   M303.6,78c-3,0-9.2-0.3-15.5-0.3c-7.7,0-13,0.3-15.8,0.3c-0.4-0.5-0.3-2.6,0-3c3.2-0.3,5.8-0.6,7.4-1c3.3-0.6,3.9-2.7,4-7.5  c0.3-8.1,0.4-30.5,0.4-47.8c0-0.4-0.4-0.8-0.7-0.8c-1.8-0.1-9.5-0.1-13.5,0c-1.8,0.1-3.1,0.8-4.4,2.9c-1.3,2-2.6,5.7-4.1,9.7  c-0.4,0.3-3-0.3-3.2-0.8c0.8-4.4,1.9-12.7,2.1-17.2c0-0.2,0.9-0.5,1.1-0.4c1.9,0.9,4.6,1.6,8.4,1.6h38.6c4.8,0,7.1-0.2,10.1-1.6  c0.3,0,0.9,0.3,1,0.5c-1,3.7-1.9,12-2.4,17.6c-0.3,0.5-3,0.5-3.3,0.1c-0.3-3.7-0.8-7.3-1.7-9.3c-0.8-2.1-2.1-2.9-4.1-3  c-4.9-0.1-12.2-0.1-14.6,0c-0.3,0.1-0.5,0.5-0.5,0.8c0,15.3,0,44.2,0.3,49.5c0.3,3.7,1.1,4.9,3.5,5.5c1.7,0.5,3.4,0.7,7.1,1.1  C304.3,75.5,304.1,77.8,303.6,78z M182.8,13.2c1.9,0,8.3,0.3,13.2,0.3c4.9,0,9.7-0.3,12.3-0.3c0.4,0.3,0.4,2.6,0,2.9  c-2.2,0.4-3.7,0.5-4.9,0.9c-2.4,0.7-3,1.9-3.1,5.5c-0.2,10.2-0.1,24.3,0.1,29.8c0.2,4.4,0.8,8.3,2,10.6c2.1,5.8,8.1,10.5,18,10.5  c8.7,0,17.1-2.6,18-19.1c0.4-7.9,0.6-19.6,0.2-30.2c-0.1-5.2-1.3-6.6-4.7-7.2c-1.5-0.4-3-0.5-5.3-0.9c-0.4-0.4-0.3-2.6,0.1-2.9  c1.9,0,6.5,0.3,12.5,0.3c4.7,0,9.4-0.3,11.2-0.3c0.3,0.3,0.4,2.7,0,2.9c-1.6,0.4-3.2,0.6-4.4,1c-3,0.8-3.7,2.7-3.8,7.7  c-0.6,21.4-0.3,29-2.1,36.3c-3,14.1-14.3,18.4-25.2,18.4c-16.5,0-23.8-7.5-25.1-18.9c-0.8-6.6-0.6-33.1-0.8-38.4  c-0.1-2.7-0.7-4.4-2.9-5.1c-1.1-0.4-3.5-0.7-5.4-1C182.3,15.8,182.4,13.5,182.8,13.2z M128.7,65.3c5.3-12.6,15.1-39.2,17.4-45.9  c0.8-2.2,1.6-4.5,1.8-5.9c0.4,0,1.7,0.1,3.4,0.1c2.1,0,3.1-0.1,3.4-0.1c0.4,1.6,0.9,3.4,1.7,5.4c2.1,5.9,13.7,39,17.3,47.7  c3,7,3.8,7.5,11.3,8.4c0.4,0.3,0.1,2.6-0.2,3c-2.7-0.1-8-0.3-12.7-0.3c-5.1,0-11.5,0.2-13.7,0.3c-0.3-0.4-0.5-2.6-0.1-3  c2.3-0.3,4.2-0.6,5.7-1.1c1.4-0.6,1.5-1.7,1.1-2.6c-1.3-4.5-4.4-13.2-6.3-17.9c-0.1-0.3-0.7-0.7-0.9-0.7c-1.5-0.1-5.1,0-9.8,0  c-6.7,0-7.4-0.1-8.7,0c-0.4,0-0.9,0.6-1,0.9c-2.1,5.6-5.4,14.4-5.6,16.9c-0.1,1.8,0.1,2.9,3.3,3.8c1.3,0.3,3,0.6,5,0.8  c0.3,0.4,0.1,2.6-0.2,3c-2.2,0-7.5-0.3-13.4-0.3c-5.9,0-9.2,0.3-11.2,0.3c-0.4-0.4-0.4-2.6,0-3C124,74,125.3,73.3,128.7,65.3z   M148.7,24.4c-1.8,5.2-6,17-7.8,22.5c0,0.4,0.1,0.6,0.4,0.7c1,0.1,4.4,0.1,8.3,0.1c2.5,0,5.9,0,7-0.1c0.2,0,0.5-0.4,0.3-0.8  c-2.1-6.5-6.1-18-7.7-22.5C149.1,24.3,148.8,24.2,148.7,24.4z M62.1,13.1c2.6,0,8,0.4,13.9,0.4h20.5c4,0,9.4-0.1,11.6-0.4  c0.1,0.1,0.4,0.4,0.4,0.5c-0.8,3.1-1.6,10.1-1.9,14.3c-0.4,0.5-2.9,0.5-3.2,0.2c-0.3-3-0.7-4.8-1.1-6.4c-0.8-2.5-1.8-3.7-5.2-4  c-2-0.1-14.6-0.1-16,0c-0.7,0.2-1.3,1.5-1.3,2c-0.1,5.8-0.1,17.4-0.1,22.1c0,0.3,0.2,0.7,0.5,0.7c4.2,0.1,12.2,0.1,16-0.2  c2.3-0.2,3-1.5,3.5-3.1c0.4-1.1,0.8-2.6,1.1-4.2c0.6-0.3,3-0.2,3.4,0.3c-0.3,2.1-0.7,6.2-0.7,9.8c0,3.9,0.1,6.9,0.2,9.5  c-0.5,0.5-3,0.6-3.5,0.1c-0.3-2.2-0.4-3-0.8-4.3c-0.4-1.5-1.1-2.8-3.5-3c-3.1-0.3-11.8-0.3-15.6-0.2c-0.2,0-0.5,0.5-0.5,0.8  c0,4.8,0,15.9,0.2,20.9c0,2.1,1.1,3.5,2.4,4c2.1,0.5,11.2,0.6,15.4,0.6c4.5-0.1,5.8-1,7.7-3.4c1.7-1.9,3.9-6.1,5.2-9.2  c0.5-0.1,2.6,0.6,3,1.1c-0.5,3.2-2.8,11.2-4.4,14.3c-0.6,1.1-1.3,1.7-6.5,1.7c-8.8,0-16.3-0.4-27.1-0.4c-7,0-12.2,0.3-16.5,0.3  c-0.4-0.3-0.5-2.5-0.1-3c3.2-0.3,6.1-0.5,7.9-1c2.5-0.6,3.2-2,3.5-5.6c0.1-2,0.1-13.5,0.1-25.2c0-9.5,0-18.8-0.1-20.7  c-0.2-3.8-0.6-4.7-3.1-5.3c-1.4-0.4-3.1-0.7-5.5-1C61.5,15.6,61.7,13.6,62.1,13.1z M1.8,13.2c2.4,0,5.9,0.3,12,0.3  c6.1,0,10-0.2,16.8-0.2c7.1,0,18.4,2.3,18.4,14.6c0,5.9-4.1,10.8-10.1,13.4c-0.2,0.1-0.2,0.3,0,0.4c8.1,1.9,14.7,6.9,14.7,16.1  c0,8.7-5.1,14.5-13,17.9c-4.8,2.1-10.6,2.6-16.2,2.6c-4.7,0-16.9-0.5-23.8-0.3c-0.3-0.2-0.4-1-0.4-1.7c0-0.6,0.1-1.2,0.3-1.3  c1.9-0.2,4.9-0.4,6.7-0.8c2.3-0.6,3-1.6,3.3-5.3c0.2-3.3,0.2-12.5,0.2-23.7c0-13,0.1-19.8-0.1-23.7c-0.1-2.9-1-3.9-2.8-4.4  c-1.5-0.4-4.1-0.7-6-0.9C1.3,15.8,1.4,13.4,1.8,13.2z M20.6,17.3c-0.4,0.2-0.8,1.1-0.8,1.7c-0.1,3-0.3,14.1-0.3,21.5  c0,0.2,0.3,0.5,0.5,0.5c1.1,0.1,3.5,0.2,6.5,0.2c5.1,0,7.2-0.5,8.4-1.3c3.3-2,4.9-5.6,4.9-9.7c0-9.1-5.6-13.2-15.5-13.2  C23.1,17,21.6,17.1,20.6,17.3z M43.8,60c0-9.9-7.1-15.3-18.9-15.3c-1.6,0-4.3,0-5,0.2c-0.2,0-0.5,0.2-0.5,0.4c0,6.6,0,19.3,0.3,23.6  c0.2,1.4,1.1,3.2,2.4,4c1.8,1.1,5.6,1.5,8,1.5C38.5,74.3,43.8,69.7,43.8,60z"></path>
<path class="st0" d="M642.7,13.2c2.5,0,7.7,0.3,13.4,0.3c7,0,10.1-0.3,13-0.3c0.3,0.5,0.3,2.6-0.1,2.9c-1.9,0.3-3.9,0.6-5,0.9  c-2.1,0.6-2.8,1.5-2.9,4.8c-0.2,3.9-0.1,9.2-0.1,19.4c0,0.4,0.2,0.9,0.5,1c0.7,0.1,2.6,0.2,17.7,0.2c11.5-0.1,15.4-0.1,16.4-0.2  c0.3,0,0.6-0.4,0.6-0.6c0-5.4,0-17.2-0.2-21c-0.1-1.7-0.6-2.9-2.1-3.4c-1.6-0.5-3.4-0.8-6.2-1.1c-0.5-0.4-0.4-2.5,0.1-3  c2.4,0,7.5,0.4,13,0.4c5.2,0,11.3-0.3,12.9-0.3c0.3,0.4,0.4,2.5,0,2.9c-2.3,0.3-4.1,0.6-5.4,1c-2.3,0.7-2.7,1.9-2.9,5.6  c-0.2,3.7-0.2,9.8-0.2,22.2c0,9.1,0,20.5,0.2,24.1c0.3,2.9,0.9,4.1,2.9,4.7c1.5,0.5,3.4,0.8,6.7,1.1c0.1,0.1,0.2,0.5,0.2,1  c0,0.8-0.2,1.8-0.6,2c-3.1,0-8.7-0.3-14-0.3c-5.3,0-10.5,0.2-13.2,0.3c-0.4-0.4-0.4-2.5,0-3c2.7-0.3,4.3-0.5,5.9-1  c1.9-0.5,2.5-1.6,2.7-4.8c0.1-3,0.1-14.4,0.1-21c0-0.3-0.3-0.7-0.6-0.7c-2-0.1-10.8-0.1-16.6-0.1c-8.1,0-16.7,0-17.7,0.1  c-0.2,0-0.3,0.5-0.3,0.6c0,5.7,0,17.7,0.1,19.9c0.2,3.5,0.6,5,3.2,5.7c1.6,0.4,3.1,0.8,6.3,1.3c0.4,0.5,0,2.8-0.4,3  c-2,0-6.9-0.3-13.6-0.3c-6.2,0-11.8,0.3-13.9,0.3c-0.4-0.4-0.4-2.6-0.1-3c2.5-0.3,4.2-0.6,5.6-0.9c3-0.9,3.3-2.8,3.7-7.6  c0-3.5,0.1-12.4,0.1-21.5c0-10.1-0.1-21.2-0.2-23.1c-0.2-2.9-0.8-4.1-2.9-4.6c-1.6-0.5-3.4-0.7-6.3-1.1  C642.2,15.7,642.3,13.6,642.7,13.2z M605,72.9c2.6,2,6.3,2.8,10.2,2.8c5.3,0,11.2-3.1,11.2-11c0-6.9-4.3-10.1-13.7-15.6  c-9.3-5.3-15.5-10.4-15.5-19.8c0-11.2,9.2-17.6,20.5-17.6c7.2,0,11.5,1.4,15.9,1.8c-0.7,3.4-1.4,9.3-1.8,14.4  c-0.3,0.6-2.7,0.6-3,0.1c-0.6-6.2-1.6-9.1-4.1-10.7c-2.3-1.7-5.3-2.2-8.4-2.2c-7.2,0-10.8,5.5-11,10.6c0,5.8,2.7,8.9,7.1,11.9  c4.2,2.7,9.4,5.2,12.9,7.3c5.4,3.4,10,7.8,10,15.4c0,10.2-8.4,19.3-23.2,19.3c-6.3,0-12.5-2-15-3.2c-0.9-1.4-2.6-12.1-2.9-15.6  c0.2-0.6,2.7-1.3,3.2-0.9C599.3,66.2,601.4,70.4,605,72.9z M527.1,70.1c-6.3-6.9-9-15.6-9-25c0-7.7,2.3-14.4,6.5-20.1  c5.7-7.9,17.1-13.2,27.9-13.2c21.3,0,32,15.5,32,32.5c0,9.2-2.1,15.8-6.4,21.7c-6.5,9-17,13.7-27.4,13.7  C540.6,79.5,532.5,75.9,527.1,70.1z M565.8,71.3c6.5-5.2,8.8-13.9,8.8-23.5c0-11.3-3.8-22.1-12-27.9c-3.8-2.6-8.2-4.2-13.7-4.2  c-3.6,0-6.8,0.8-9.4,2.3c-7.6,4.5-11.2,13.9-11.2,24.5c0,11,4.1,22.8,13.2,28.8c3.7,2.3,7.7,3.5,13,3.5C559,75,563,73.6,565.8,71.3z   M461.7,49.4c-2.5,1.7-4.8,3.5-7,5.5V56c0.3,6.2,0.5,12.4,0.5,18.6c1.1-0.2,2-0.3,2.7-0.5c2.5-0.5,3.3-1.8,3.5-5.7  C461.5,66.4,461.6,56.1,461.7,49.4z M324.7,13.2c2.6,0,8.1,0.3,12.9,0.3c3.5,0,10.3-0.2,11.6-0.3c0.5,0.3,0.6,2.5,0.1,2.9  c-1.1,0.2-3,0.5-3.8,0.7c-1.4,0.4-1.5,1.5-0.7,2.9c2.7,5.8,11,21.7,13.1,25.3c0.1,0,0.5,0,0.6-0.1c3.6-5.9,11-19.2,12.9-24  c0.9-2,0.8-3.4-2.1-4.1c-1.4-0.3-2.6-0.4-4.9-0.8c-0.4-0.5-0.2-2.7,0.3-2.9c3.1,0.1,7.8,0.3,11.5,0.3c4.5,0,7-0.1,10-0.3  c0.1-3.4,0.3-6.8,0.5-10.2c0.1-1.5,1.3-2.7,2.8-2.9h0.9c1.7,0.2,3,1.7,2.8,3.5c0,0.1-0.1,0.2-0.1,0.4V4c-1.4,6.9-2.2,14.1-2.7,21.4  c-0.6,7.2-0.9,14.4-1,21.7c-0.2,7.2-0.1,14.5-0.1,21.7c0,1,0,2.1,0.1,3c0.8-3.2,1.7-6.4,2.7-9.5c1.5-4.6,3-9.2,5.2-13.6  c1.1-2.2,2.4-4.4,4.3-6.4c1-1,2.1-1.8,3.5-2.4c0.7-0.3,1.5-0.4,2.3-0.4c0.8,0,1.6,0.1,2.4,0.3v0.1c0.1,0,0.2,0.1,0.3,0.1  c1.3,0.7,2.1,1.8,2.8,2.8c0.6,1.1,1,2.2,1.4,3.3c0.6,2.1,0.9,4.3,1,6.4c1.4-1,2.9-2.1,4.4-3c3.1-2,6.5-3.8,10-5.1  c-0.1-0.3-0.2-0.6-0.2-0.9c-0.4-1.2,0.3-2.4,1.5-2.7c1.1-0.3,2.3,0.3,2.7,1.5c0,0.1,0,0.1,0,0.1c0.6,2.7,0.6,5.2,0.6,7.6  c0,2.5-0.1,5-0.4,7.3c-0.1,1.3-0.1,2.4-0.1,3.4c0.1,0.4,0.1,0.7,0.1,1c0.2-0.1,0.4-0.4,0.7-0.5c0.4-0.4,0.8-0.8,1.2-1.3  c0.7-0.8,1.4-1.8,2.1-2.7c2.7-3.8,5.2-8,7.5-12.3c2.2-4.2,4.3-8.6,5.5-13.2l0.1-0.1c0.4-0.8,1.3-1.1,2.1-0.7  c0.6,0.3,0.9,0.9,0.9,1.5c-0.2,3.9,0,7.9,0.1,11.9l0.4,9.4c2.2-2,4.6-3.7,7.1-5.3c0-0.8,0-1.6,0-2.2c0-10.6,0-21.1-0.1-24.3  c-0.1-2.9-0.8-4.2-3.4-4.8c-1.6-0.3-3.5-0.6-5.6-0.8c-0.4-0.4-0.2-2.7,0.2-2.9c2.5,0,8.8,0.3,12,0.3c7.7,0,13.1-0.2,17.3-0.2  c12.2,0,18.7,7.3,18.7,16.1s-5.6,14-11.9,16.8c-0.2,0.2-0.3,0.5-0.2,0.7c3.6,5.8,11.9,17.3,17,22.5c4.3,4.4,5.7,4.9,12,5.7  c0.2,0.3,0,2.7-0.6,2.9c-4.5,0.2-12.8-0.1-16.7-2c-1.6-0.7-3.2-2-5-4.2c-4-4.7-10.3-15.1-14.3-20.8c-0.7-1-1.8-1.6-2.6-1.6  c-1.5-0.2-5.9-0.1-7.4-0.1c-0.2,0-0.4,0.5-0.4,0.6c0,5.7,0,15.4,0.2,18.9c0.2,3.5,0.9,4.5,3.3,5c1.6,0.3,3.4,0.6,5.8,0.9  c0.5,0.4,0.3,2.6-0.2,3c-2,0-7-0.3-13.9-0.3c-4.7,0-8.2,0.1-10.7,0.2c0,0.6,0,1.3,0,1.9c-0.1,8-0.4,16-1.6,23.9  c-0.6,4-1.3,8-2.6,11.9c-0.7,2-1.4,3.9-2.7,5.8c-0.7,0.9-1.5,1.8-2.6,2.4c-0.6,0.4-1.3,0.6-1.9,0.7c-0.3,0.1-0.7,0.1-1,0.1  c-0.4,0-0.7-0.1-1-0.1c-1.5-0.5-2.3-1.5-3-2.4c-0.7-0.9-1.2-1.8-1.6-2.7c-0.8-1.9-1.4-3.9-1.9-5.8c-0.9-4-1.3-8-1.4-12  c-0.1-8,1.1-16,3.9-23.6c2.7-7.5,6.9-14.5,12.5-20.2c0.4-0.4,0.7-0.7,1.2-1.2c0-0.1,0-0.1,0-0.3c0-3.9-0.1-7.9-0.2-11.8  c0-2.3-0.1-4.5-0.2-6.8c-1.6,2.7-3,5.5-4.4,8.3c-1,2.1-2.1,4.3-3.3,6.4c-1.1,2.1-2.3,4.3-3.5,6.4c-0.7,1-1.3,2.1-2.1,3.1  c-0.4,0.5-0.8,1-1.3,1.5c-0.5,0.5-1,1-1.9,1.4c-0.4,0.2-1.2,0.4-2,0.1c-0.7-0.4-1.1-1-1.3-1.3c-0.4-0.9-0.5-1.6-0.6-2.3  c-0.1-1.3-0.1-2.7-0.1-3.8c0-2.4,0-4.8-0.1-7.2c-0.1-1.5-0.2-2.9-0.5-4.3c-3.3,1.3-6.4,3.1-9.4,5c-1.8,1.2-3.5,2.4-5.1,3.7  c0.1,3.7-0.2,7.4-0.7,11c-0.4,2.1-0.8,4.2-1.4,6.4c-0.4,1-0.7,2.1-1.3,3.2c-0.5,1-1.1,1.8-1.7,2.7c-1.3,1.8-2.6,3.5-4.7,4.9  c-0.5,0.4-1,0.7-1.7,0.8c-0.7,0.1-1.5,0.1-2.2-0.1c-0.7-0.3-1.3-0.8-1.7-1.4c-0.4-0.5-0.7-1.2-0.8-1.8c-0.6-2.4-0.3-4.6,0.1-6.7  c0.5-2.1,1.3-4.2,2.4-6.1c2.1-3.8,4.9-7.1,7.9-10c0.9-0.9,1.8-1.7,2.7-2.5c0-0.7,0-1.3-0.1-2c-0.1-2-0.5-4-1-5.8  c-0.6-1.7-1.5-3.3-2.6-4c-0.7-0.1-1.5-0.1-2.1,0.2c-0.8,0.3-1.6,0.9-2.2,1.6c-1.4,1.6-2.5,3.5-3.5,5.5c-2,4.1-3.4,8.6-4.6,13.1  c-1.2,4.5-2.1,9.1-3,13.7c-0.4,2.3-0.7,4.7-1.1,6.9l-1,7.2l-0.4,1.1c-0.7,1.6-2.5,2.3-4.1,1.6c-1.4-0.5-2.1-2-1.8-3.4  c0-0.2,0.1-0.5,0.1-0.7c0-0.1,0-0.2,0.1-0.3c0.5-3.3,0.8-6.6,1-9.8c0.2-3.7,0.3-7.3,0.3-10.9L386.1,47c-0.1-7.2-0.1-14.6,0-21.9  c0-2.9,0.1-5.8,0.1-8.8l-3.1,0.6c-3.1,0.8-4.6,2.4-7.3,6.7c-4.5,7-12.2,20.7-14.6,25.3c-0.4,0.9-0.8,2.7-0.8,3.7  c0,4.1,0.1,9.3,0.2,14.6c0.1,4.6,0.6,6.3,3.4,6.9c1.7,0.4,3.5,0.6,6.4,0.9c0.3,0.4,0.1,2.6-0.3,2.9c-2.6,0-8.3-0.3-14.4-0.3  c-7.4,0-12.1,0.3-15,0.3c-0.4-0.3-0.4-2.6,0-2.9c2.7-0.3,5.3-0.6,7.1-1c2.8-0.7,3.4-2.5,3.5-5.7c0.1-5.1,0.1-9,0.1-13.5  c0-1.5-0.3-3.8-0.8-5c-2.2-5-8.3-16.5-12.5-24.1c-4.1-7.1-5-7.9-8.8-8.9c-1.3-0.3-2.6-0.4-4.8-0.7C324.2,15.7,324.3,13.6,324.7,13.2  z M412.6,56.9c-0.5,0.5-1.1,1-1.6,1.6c-3,2.9-5.6,6.1-7.5,9.8c-1,1.8-1.6,3.7-2,5.6c-0.4,1.9-0.6,4-0.1,5.7c0.2,0.9,0.7,1.6,1.2,1.7  c0.4,0.1,1.3-0.1,2-0.6c1.5-1,2.7-2.6,3.8-4.3c0.5-0.8,1-1.7,1.5-2.6c0.4-0.8,0.7-1.8,1-2.7c0.5-1.9,0.9-4,1.1-6  C412.4,62.4,412.6,59.6,412.6,56.9z M451.2,79.7c0.1-7.2,0.3-14.6,0.3-21.8c-0.1,0.1-0.3,0.2-0.4,0.4c-5.3,5.8-9.4,12.6-11.9,20  c-2.6,7.4-3.7,15.2-3.4,23.1c0.2,3.8,0.7,7.8,1.7,11.5c0.5,1.8,1.1,3.7,2,5.4c0.4,0.8,0.9,1.6,1.4,2.3c0.5,0.7,1.2,1.2,1.6,1.3  c0.1,0,0.3,0.1,0.4,0.1c0.1,0,0.3-0.1,0.4-0.1c0.4-0.1,0.7-0.1,1-0.4c0.5-0.4,1.1-1,1.6-1.7c0.9-1.5,1.6-3.3,2.1-5  c1-3.7,1.6-7.5,1.9-11.5C450.7,95.5,451,87.6,451.2,79.7z M471.5,17.4c-0.3,0.2-0.7,1-0.7,1.6c-0.2,3.5-0.2,17.7-0.2,25.9  c0,0.2,0.2,0.5,0.5,0.5c7,0.2,11.5,0,13.5-0.8c3.3-1.6,6.8-5.3,6.8-12.1c0-9.8-5-15.5-16.2-15.5C474.3,16.9,472.5,17,471.5,17.4z   M303.6,78c-3,0-9.2-0.3-15.5-0.3c-7.7,0-13,0.3-15.8,0.3c-0.4-0.5-0.3-2.6,0-3c3.2-0.3,5.8-0.6,7.4-1c3.3-0.6,3.9-2.7,4-7.5  c0.3-8.1,0.4-30.5,0.4-47.8c0-0.4-0.4-0.8-0.7-0.8c-1.8-0.1-9.5-0.1-13.5,0c-1.8,0.1-3.1,0.8-4.4,2.9c-1.3,2-2.6,5.7-4.1,9.7  c-0.4,0.3-3-0.3-3.2-0.8c0.8-4.4,1.9-12.7,2.1-17.2c0-0.2,0.9-0.5,1.1-0.4c1.9,0.9,4.6,1.6,8.4,1.6h38.6c4.8,0,7.1-0.2,10.1-1.6  c0.3,0,0.9,0.3,1,0.5c-1,3.7-1.9,12-2.4,17.6c-0.3,0.5-3,0.5-3.3,0.1c-0.3-3.7-0.8-7.3-1.7-9.3c-0.8-2.1-2.1-2.9-4.1-3  c-4.9-0.1-12.2-0.1-14.6,0c-0.3,0.1-0.5,0.5-0.5,0.8c0,15.3,0,44.2,0.3,49.5c0.3,3.7,1.1,4.9,3.5,5.5c1.7,0.5,3.4,0.7,7.1,1.1  C304.3,75.5,304.1,77.8,303.6,78z M182.8,13.2c1.9,0,8.3,0.3,13.2,0.3c4.9,0,9.7-0.3,12.3-0.3c0.4,0.3,0.4,2.6,0,2.9  c-2.2,0.4-3.7,0.5-4.9,0.9c-2.4,0.7-3,1.9-3.1,5.5c-0.2,10.2-0.1,24.3,0.1,29.8c0.2,4.4,0.8,8.3,2,10.6c2.1,5.8,8.1,10.5,18,10.5  c8.7,0,17.1-2.6,18-19.1c0.4-7.9,0.6-19.6,0.2-30.2c-0.1-5.2-1.3-6.6-4.7-7.2c-1.5-0.4-3-0.5-5.3-0.9c-0.4-0.4-0.3-2.6,0.1-2.9  c1.9,0,6.5,0.3,12.5,0.3c4.7,0,9.4-0.3,11.2-0.3c0.3,0.3,0.4,2.7,0,2.9c-1.6,0.4-3.2,0.6-4.4,1c-3,0.8-3.7,2.7-3.8,7.7  c-0.6,21.4-0.3,29-2.1,36.3c-3,14.1-14.3,18.4-25.2,18.4c-16.5,0-23.8-7.5-25.1-18.9c-0.8-6.6-0.6-33.1-0.8-38.4  c-0.1-2.7-0.7-4.4-2.9-5.1c-1.1-0.4-3.5-0.7-5.4-1C182.3,15.8,182.4,13.5,182.8,13.2z M128.7,65.3c5.3-12.6,15.1-39.2,17.4-45.9  c0.8-2.2,1.6-4.5,1.8-5.9c0.4,0,1.7,0.1,3.4,0.1c2.1,0,3.1-0.1,3.4-0.1c0.4,1.6,0.9,3.4,1.7,5.4c2.1,5.9,13.7,39,17.3,47.7  c3,7,3.8,7.5,11.3,8.4c0.4,0.3,0.1,2.6-0.2,3c-2.7-0.1-8-0.3-12.7-0.3c-5.1,0-11.5,0.2-13.7,0.3c-0.3-0.4-0.5-2.6-0.1-3  c2.3-0.3,4.2-0.6,5.7-1.1c1.4-0.6,1.5-1.7,1.1-2.6c-1.3-4.5-4.4-13.2-6.3-17.9c-0.1-0.3-0.7-0.7-0.9-0.7c-1.5-0.1-5.1,0-9.8,0  c-6.7,0-7.4-0.1-8.7,0c-0.4,0-0.9,0.6-1,0.9c-2.1,5.6-5.4,14.4-5.6,16.9c-0.1,1.8,0.1,2.9,3.3,3.8c1.3,0.3,3,0.6,5,0.8  c0.3,0.4,0.1,2.6-0.2,3c-2.2,0-7.5-0.3-13.4-0.3c-5.9,0-9.2,0.3-11.2,0.3c-0.4-0.4-0.4-2.6,0-3C124,74,125.3,73.3,128.7,65.3z   M148.7,24.4c-1.8,5.2-6,17-7.8,22.5c0,0.4,0.1,0.6,0.4,0.7c1,0.1,4.4,0.1,8.3,0.1c2.5,0,5.9,0,7-0.1c0.2,0,0.5-0.4,0.3-0.8  c-2.1-6.5-6.1-18-7.7-22.5C149.1,24.3,148.8,24.2,148.7,24.4z M62.1,13.1c2.6,0,8,0.4,13.9,0.4h20.5c4,0,9.4-0.1,11.6-0.4  c0.1,0.1,0.4,0.4,0.4,0.5c-0.8,3.1-1.6,10.1-1.9,14.3c-0.4,0.5-2.9,0.5-3.2,0.2c-0.3-3-0.7-4.8-1.1-6.4c-0.8-2.5-1.8-3.7-5.2-4  c-2-0.1-14.6-0.1-16,0c-0.7,0.2-1.3,1.5-1.3,2c-0.1,5.8-0.1,17.4-0.1,22.1c0,0.3,0.2,0.7,0.5,0.7c4.2,0.1,12.2,0.1,16-0.2  c2.3-0.2,3-1.5,3.5-3.1c0.4-1.1,0.8-2.6,1.1-4.2c0.6-0.3,3-0.2,3.4,0.3c-0.3,2.1-0.7,6.2-0.7,9.8c0,3.9,0.1,6.9,0.2,9.5  c-0.5,0.5-3,0.6-3.5,0.1c-0.3-2.2-0.4-3-0.8-4.3c-0.4-1.5-1.1-2.8-3.5-3c-3.1-0.3-11.8-0.3-15.6-0.2c-0.2,0-0.5,0.5-0.5,0.8  c0,4.8,0,15.9,0.2,20.9c0,2.1,1.1,3.5,2.4,4c2.1,0.5,11.2,0.6,15.4,0.6c4.5-0.1,5.8-1,7.7-3.4c1.7-1.9,3.9-6.1,5.2-9.2  c0.5-0.1,2.6,0.6,3,1.1c-0.5,3.2-2.8,11.2-4.4,14.3c-0.6,1.1-1.3,1.7-6.5,1.7c-8.8,0-16.3-0.4-27.1-0.4c-7,0-12.2,0.3-16.5,0.3  c-0.4-0.3-0.5-2.5-0.1-3c3.2-0.3,6.1-0.5,7.9-1c2.5-0.6,3.2-2,3.5-5.6c0.1-2,0.1-13.5,0.1-25.2c0-9.5,0-18.8-0.1-20.7  c-0.2-3.8-0.6-4.7-3.1-5.3c-1.4-0.4-3.1-0.7-5.5-1C61.5,15.6,61.7,13.6,62.1,13.1z M1.8,13.2c2.4,0,5.9,0.3,12,0.3  c6.1,0,10-0.2,16.8-0.2c7.1,0,18.4,2.3,18.4,14.6c0,5.9-4.1,10.8-10.1,13.4c-0.2,0.1-0.2,0.3,0,0.4c8.1,1.9,14.7,6.9,14.7,16.1  c0,8.7-5.1,14.5-13,17.9c-4.8,2.1-10.6,2.6-16.2,2.6c-4.7,0-16.9-0.5-23.8-0.3c-0.3-0.2-0.4-1-0.4-1.7c0-0.6,0.1-1.2,0.3-1.3  c1.9-0.2,4.9-0.4,6.7-0.8c2.3-0.6,3-1.6,3.3-5.3c0.2-3.3,0.2-12.5,0.2-23.7c0-13,0.1-19.8-0.1-23.7c-0.1-2.9-1-3.9-2.8-4.4  c-1.5-0.4-4.1-0.7-6-0.9C1.3,15.8,1.4,13.4,1.8,13.2z M20.6,17.3c-0.4,0.2-0.8,1.1-0.8,1.7c-0.1,3-0.3,14.1-0.3,21.5  c0,0.2,0.3,0.5,0.5,0.5c1.1,0.1,3.5,0.2,6.5,0.2c5.1,0,7.2-0.5,8.4-1.3c3.3-2,4.9-5.6,4.9-9.7c0-9.1-5.6-13.2-15.5-13.2  C23.1,17,21.6,17.1,20.6,17.3z M43.8,60c0-9.9-7.1-15.3-18.9-15.3c-1.6,0-4.3,0-5,0.2c-0.2,0-0.5,0.2-0.5,0.4c0,6.6,0,19.3,0.3,23.6  c0.2,1.4,1.1,3.2,2.4,4c1.8,1.1,5.6,1.5,8,1.5C38.5,74.3,43.8,69.7,43.8,60z"></path>
</svg>
