<?xml version="1.0" encoding="UTF-8" standalone="no"?>
<svg width="397px" height="62px" viewBox="0 0 397 62" version="1.1" xmlns="http://www.w3.org/2000/svg" xmlns:xlink="http://www.w3.org/1999/xlink">
    <defs>
        <polygon id="path-1" points="0 61.5039 0 0.0003 396.8516 0.0003 396.8516 61.5039"></polygon>
    </defs>
    <g id="Page-1" stroke="none" stroke-width="1" fill="none" fill-rule="evenodd">
        <g>
            <mask id="mask-2" fill="white">
                <use xlink:href="#path-1"></use>
            </mask>
            <g id="Clip-2"></g>
            <path d="M382.0176,17.4453 L385.5426,17.4453 C385.5426,18.2613 385.9006,21.8143 389.4546,21.8143 C391.6696,21.8143 393.3356,20.2773 393.3356,17.7343 C393.3356,15.0313 391.1156,14.4453 389.4546,13.7893 C386.2286,12.5513 385.4396,12.1603 384.3316,11.0863 C383.2286,10.0083 382.7016,8.2483 382.7016,6.5543 C382.7016,3.7503 384.8866,0.0003 389.4546,0.0003 C393.4646,0.0003 396.3636,2.6403 396.3636,6.7193 L392.8436,6.7193 C392.8436,4.0473 390.8926,3.2303 389.4546,3.2303 C387.3636,3.2303 386.2286,5.1173 386.2286,6.5153 C386.2286,8.8363 388.4126,9.4573 389.4546,9.8473 C392.4826,10.9843 396.8516,11.9293 396.8516,17.7343 C396.8516,21.9413 393.8926,25.0453 389.4546,25.0453 C386.1266,25.0453 382.0176,22.8203 382.0176,17.4453 L382.0176,17.4453 Z M202.2406,24.5803 L202.2406,0.4553 L208.5056,0.4553 C215.3146,0.4553 216.0296,5.4433 216.0296,7.1363 C216.0296,9.8083 214.6956,10.9843 213.8826,11.7073 C214.8886,12.2933 217.4666,13.8263 217.4666,17.5743 C217.4666,20.0513 216.0996,24.5803 209.4476,24.5803 L202.2406,24.5803 Z M205.7656,13.7263 L205.7656,21.3533 L209.5766,21.3533 C213.1326,21.3533 213.9456,18.8123 213.9456,17.5743 C213.9456,16.6933 213.5856,15.8443 213.0976,15.1973 C212.0196,13.7573 210.3906,13.7263 209.1526,13.7263 L205.7656,13.7263 Z M205.7656,3.6833 L205.7656,10.4963 L208.6346,10.4963 C211.9276,10.4963 212.5116,8.5073 212.5116,7.1093 C212.5116,3.6833 209.2186,3.6833 208.4376,3.6833 L205.7656,3.6833 Z M245.1736,24.5803 L241.4256,24.5803 L238.7496,17.4723 L230.0786,17.4723 L227.4066,24.5803 L223.6856,24.5803 L232.8476,0.4553 L236.0116,0.4553 L245.1736,24.5803 Z M231.3186,14.2463 L237.5446,14.2463 L234.4846,5.0193 L231.3186,14.2463 Z M272.0706,24.5803 L268.4146,24.5803 L256.4866,5.9333 L256.4216,24.5803 L252.8946,24.5803 L252.8946,0.4553 L256.7446,0.4553 L268.4766,18.8123 L268.5426,0.4553 L272.0706,0.4553 L272.0706,24.5803 Z M281.5176,24.5803 L281.5176,0.4553 L289.3396,0.4553 C294.3656,0.4553 297.3636,2.3793 299.1876,4.8863 C300.9216,7.3043 301.6696,10.2343 301.6696,12.5863 C301.6696,15.8443 300.4256,19.3323 298.6326,21.0903 C295.8676,23.8323 292.5996,24.5803 289.2126,24.5803 L281.5176,24.5803 Z M285.0406,3.6833 L285.0406,21.3533 L289.2426,21.3533 C293.4806,21.3533 298.1406,19.2303 298.1406,12.5863 C298.1406,8.9333 295.8946,3.6833 289.3106,3.6833 L285.0406,3.6833 Z M323.2876,24.5803 L310.2776,24.5803 L310.2776,0.4553 L323.2876,0.4553 L323.2876,3.6833 L313.7926,3.6833 L313.7926,10.7933 L323.2876,10.7933 L323.2876,14.0233 L313.7926,14.0233 L313.7926,21.3533 L323.2876,21.3533 L323.2876,24.5803 Z M348.0526,24.5803 L343.6546,24.5803 L335.6976,13.4023 L335.6326,24.5803 L332.1076,24.5803 L332.1076,0.4553 L339.5766,0.4553 C342.9706,0.4553 344.7286,1.2693 345.9976,2.4803 C347.5336,3.9433 348.2166,6.1643 348.2166,8.1833 C348.2166,14.5743 342.8696,15.5863 341.3066,15.5863 L348.0526,24.5803 Z M335.6326,3.6833 L335.6326,12.9103 L338.0486,12.9103 C339.4826,12.9103 344.6936,12.8473 344.6936,8.1833 C344.6936,6.1643 343.3226,3.6833 339.3496,3.6833 L335.6326,3.6833 Z M376.1586,24.5803 L372.4086,24.5803 L369.7366,17.4723 L361.0606,17.4723 L358.3886,24.5803 L354.6676,24.5803 L363.8266,0.4553 L366.9946,0.4553 L376.1586,24.5803 Z M362.3026,14.2463 L368.5316,14.2463 L365.4626,5.0193 L362.3026,14.2463 Z M137.2406,24.5803 L140.7656,24.5803 L140.7656,0.4553 L137.2406,0.4553 L137.2406,24.5803 Z M127.4626,24.5803 L123.8126,24.5803 L111.8786,5.9333 L111.8126,24.5803 L108.2946,24.5803 L108.2946,0.4553 L112.1366,0.4553 L123.8786,18.8123 L123.9496,0.4553 L127.4626,0.4553 L127.4626,24.5803 Z M96.1956,12.6133 C96.1956,8.3493 93.1676,3.2303 87.1716,3.2303 C80.9436,3.2303 78.1406,8.6723 78.1406,12.5213 C78.1406,16.4633 80.9726,21.8143 87.1716,21.8143 C93.3926,21.8143 96.1956,16.4003 96.1956,12.6133 L96.1956,12.6133 Z M99.7226,12.5863 C99.7226,19.1683 94.3456,25.0453 87.1716,25.0453 C79.9606,25.0453 74.6136,19.1403 74.6136,12.5213 C74.6136,5.9653 79.7966,0.0003 87.1716,0.0003 C94.3456,0.0003 99.7226,5.7033 99.7226,12.5863 L99.7226,12.5863 Z M64.0836,24.5803 L60.5706,24.5803 L60.5706,3.6833 L55.9316,3.6833 L55.9316,0.4553 L68.7146,0.4553 L68.7146,3.6833 L64.0836,3.6833 L64.0836,24.5803 Z M48.3746,24.5803 L44.7186,24.5803 L32.7896,5.9333 L32.7266,24.5803 L29.2036,24.5803 L29.2036,0.4553 L33.0506,0.4553 L44.7896,18.8123 L44.8556,0.4553 L48.3746,0.4553 L48.3746,24.5803 Z M7.6286,14.2463 L13.8556,14.2463 L10.7896,5.0193 L7.6286,14.2463 Z M21.4806,24.5803 L17.7306,24.5803 L15.0586,17.4723 L6.3826,17.4723 L3.7106,24.5803 L-0.0004,24.5803 L9.1646,0.4553 L12.3206,0.4553 L21.4806,24.5803 Z M174.4026,12.5863 C174.4026,19.1683 169.0236,25.0453 161.8536,25.0453 C154.6446,25.0453 149.3046,19.1403 149.3046,12.5213 C149.3046,5.9653 154.4886,0.0003 161.8536,0.0003 C169.0236,0.0003 174.4026,5.7033 174.4026,12.5863 L174.4026,12.5863 Z M170.8826,12.6133 C170.8826,8.3493 167.8476,3.2303 161.8536,3.2303 C155.6246,3.2303 152.8206,8.6723 152.8206,12.5213 C152.8206,16.4633 155.6606,21.8143 161.8536,21.8143 C168.0806,21.8143 170.8826,16.4003 170.8826,12.6133 L170.8826,12.6133 Z M138.0316,61.2773 L136.2656,61.2773 L136.2656,49.2153 L142.3636,49.2153 L142.3636,50.8283 L138.0316,50.8283 L138.0316,54.4453 L142.3636,54.4453 L142.3636,56.0623 L138.0316,56.0623 L138.0316,61.2773 Z M154.5426,61.2773 L152.3396,61.2773 L148.3616,55.6833 L148.3316,61.2773 L146.5746,61.2773 L146.5746,49.2153 L150.3046,49.2153 C151.9966,49.2153 152.8746,49.6213 153.5156,50.2223 C154.2816,50.9573 154.6246,52.0663 154.6246,53.0763 C154.6246,56.2753 151.9516,56.7753 151.1646,56.7753 L154.5426,61.2773 Z M148.3316,50.8283 L148.3316,55.4413 L149.5356,55.4413 C150.2576,55.4413 152.8636,55.4063 152.8636,53.0763 C152.8636,52.0663 152.1796,50.8283 150.1916,50.8283 L148.3316,50.8283 Z M168.5896,61.2773 L166.7226,61.2773 L165.3786,57.7223 L161.0446,57.7223 L159.7056,61.2773 L157.8536,61.2773 L162.4336,49.2153 L164.0076,49.2153 L168.5896,61.2773 Z M161.6676,56.1093 L164.7776,56.1093 L163.2486,51.4943 L161.6676,56.1093 Z M182.7736,52.2503 L180.7186,52.2503 C180.2066,51.6953 179.1996,50.6013 177.4256,50.6013 C174.9156,50.6013 172.9606,52.7503 172.9606,55.2773 C172.9606,57.9333 175.1586,59.8923 177.4416,59.8923 C177.7856,59.8923 180.4416,59.8573 181.5976,56.8983 L175.9726,56.8983 L175.9726,55.2773 L183.6056,55.2773 C183.5426,59.3203 180.3086,61.5043 177.3786,61.5043 C173.8516,61.5043 171.1956,58.6523 171.1956,55.2773 C171.1956,51.8043 173.8906,48.9823 177.3596,48.9823 C179.4146,48.9823 181.5976,50.0743 182.7736,52.2503 L182.7736,52.2503 Z M195.5956,61.2773 L193.4006,61.2773 L189.4256,55.6833 L189.3866,61.2773 L187.6286,61.2773 L187.6286,49.2153 L191.3576,49.2153 C193.0586,49.2153 193.9416,49.6213 194.5706,50.2223 C195.3376,50.9573 195.6796,52.0663 195.6796,53.0763 C195.6796,56.2753 193.0056,56.7753 192.2266,56.7753 L195.5956,61.2773 Z M189.3866,50.8283 L189.3866,55.4413 L190.5976,55.4413 C191.3126,55.4413 193.9216,55.4063 193.9216,53.0763 C193.9216,52.0663 193.2386,50.8283 191.2466,50.8283 L189.3866,50.8283 Z M209.6566,61.2773 L207.7736,61.2773 L206.4436,57.7223 L202.1016,57.7223 L200.7696,61.2773 L198.9106,61.2773 L203.4926,49.2153 L205.0746,49.2153 L209.6566,61.2773 Z M202.7226,56.1093 L205.8396,56.1093 L204.3046,51.4943 L202.7226,56.1093 Z M223.0976,61.2773 L221.2716,61.2773 L215.3026,51.9533 L215.2776,61.2773 L213.5096,61.2773 L213.5096,49.2153 L215.4336,49.2153 L221.3046,58.3943 L221.3356,49.2153 L223.0976,49.2153 L223.0976,61.2773 Z M239.1346,52.2953 L237.0156,52.2953 C236.6606,51.8903 235.5806,50.6013 233.6246,50.6013 C231.1216,50.6013 229.1486,52.6683 229.1486,55.2113 C229.1486,57.8013 231.2306,59.8923 233.5976,59.8923 C234.8656,59.8923 236.0586,59.2753 236.8826,58.2933 L239.0586,58.2933 C237.7166,60.6563 235.4496,61.5043 233.5786,61.5043 C230.1546,61.5043 227.3786,58.6193 227.3786,55.1953 C227.3786,51.6763 230.2226,48.9823 233.5976,48.9823 C234.5076,48.9823 235.9766,49.2153 237.2796,50.1583 C238.3716,50.9453 238.8246,51.7613 239.1346,52.2953 L239.1346,52.2953 Z M249.5216,61.2773 L243.0196,61.2773 L243.0196,49.2153 L249.5216,49.2153 L249.5216,50.8283 L244.7776,50.8283 L244.7776,54.3793 L249.5216,54.3793 L249.5216,55.9983 L244.7776,55.9983 L244.7776,59.6603 L249.5216,59.6603 L249.5216,61.2773 Z M253.1646,57.7093 L254.9276,57.7093 C254.9276,58.1173 255.1056,59.8923 256.8866,59.8923 C257.9996,59.8923 258.8226,59.1253 258.8226,57.8593 C258.8226,56.4983 257.7186,56.2113 256.8866,55.8793 C255.2696,55.2613 254.8786,55.0643 254.3246,54.5273 C253.7676,53.9883 253.5076,53.1093 253.5076,52.2603 C253.5076,50.8613 254.6016,48.9823 256.8866,48.9823 C258.8906,48.9823 260.3396,50.3063 260.3396,52.3443 L258.5806,52.3443 C258.5806,51.0083 257.5976,50.6013 256.8866,50.6013 C255.8396,50.6013 255.2696,51.5473 255.2696,52.2503 C255.2696,53.4063 256.3616,53.7113 256.8866,53.9063 C258.4026,54.4803 260.5856,54.9533 260.5856,57.8593 C260.5856,59.9613 259.0996,61.5043 256.8866,61.5043 C255.2186,61.5043 253.1646,60.3943 253.1646,57.7093 L253.1646,57.7093 Z" id="Fill-1" fill="#1D1C1B" mask="url(#mask-2)"></path>
        </g>
    </g>
</svg>