<?xml version="1.0" encoding="utf-8"?>
<!-- Generator: Adobe Illustrator 16.0.0, SVG Export Plug-In . SVG Version: 6.00 Build 0)  -->
<!DOCTYPE svg PUBLIC "-//W3C//DTD SVG 1.1//EN" "http://www.w3.org/Graphics/SVG/1.1/DTD/svg11.dtd">
<svg version="1.1" id="Ebene_1" xmlns="http://www.w3.org/2000/svg" xmlns:xlink="http://www.w3.org/1999/xlink" x="0px" y="0px"
	 width="619px" height="143px" viewBox="0 0 619 143" enable-background="new 0 0 619 143" xml:space="preserve">
<path fill-rule="evenodd" clip-rule="evenodd" fill="#221E1F" d="M83.65,80.76h-31.7v22.37c0,10.68,10.57,11.26,11.76,11.26V116H14
	v-1.61c1.19,0,11.76-0.58,11.76-11.26V35.87c0-10.68-10.57-11.26-11.76-11.26V23h69.65c22.18,0,32.74,14.48,32.74,28.95
	C116.39,66.29,105.83,80.76,83.65,80.76z M71.3,29.29H51.95v45.18H71.3c14.29,0,20.98-10.52,20.98-22.52
	C92.28,39.96,85.59,29.29,71.3,29.29z M209.26,116l-43.31-35.24v22.37c0,10.68,10.57,11.26,11.76,11.26V116h-49.56v-1.61
	c1.19,0,11.76-0.58,11.76-11.26V35.87c0-10.68-10.57-11.26-11.76-11.26V23h69.66c22.17,0,32.59,14.48,32.59,28.95
	c0,14.34-10.42,28.81-32.59,28.81h-21.73c4.76,4.97,14.73,7.02,23.81,7.02c4.01,0,8.03-0.59,11.46-1.46l35.27,28.36V116H209.26z
	 M185.45,29.29h-19.5v45.18h19.5c14.14,0,20.99-10.52,20.99-22.52C206.44,39.96,199.59,29.29,185.45,29.29z M323.57,116v-1.61
	c4.91,0,6.99-1.46,6.99-4.68c0-1.46-0.6-3.36-1.64-5.26l-8.93-15.8H281.3l-6.85,13.9c-0.89,1.9-1.64,4.09-1.64,6.29
	c0,3.36,1.49,5.55,5.66,5.55V116h-23.96v-1.61c5.65,0,9.22-3.8,12.65-10.67l28.72-57.47l-8.04-13.31c-4.16-6.87-8.48-8.33-12.8-8.33
	V23h37.66l46.43,81.45c2.83,4.97,5.96,9.94,12.21,9.94V116H323.57z M299.45,52.68l-15.18,29.69h32.15L299.45,52.68z M436.08,116
	h-54.77v-1.61c1.19,0,11.76-0.58,11.76-11.26V35.87c0-10.68-10.57-11.26-11.76-11.26V23h54.77c24.56,0,50.15,15.79,50.15,46.5
	C486.23,100.36,460.64,116,436.08,116z M454.68,52.39c0-16.81-10.72-23.1-22.62-23.1h-12.8v80.42h12.8c11.9,0,22.62-6.29,22.62-23.1
	V52.39z M557.23,116v-1.61c4.9,0,6.99-1.46,6.99-4.68c0-1.46-0.6-3.36-1.64-5.26l-8.93-15.8h-38.69l-6.85,13.9
	c-0.89,1.9-1.64,4.09-1.64,6.29c0,3.36,1.49,5.55,5.66,5.55V116h-23.96v-1.61c5.65,0,9.23-3.8,12.65-10.67l28.72-57.47l-8.03-13.31
	c-4.17-6.87-8.49-8.33-12.8-8.33V23h37.65l46.44,81.45c2.82,4.97,5.95,9.94,12.2,9.94V116H557.23z M533.11,52.68l-15.18,29.69h32.15
	L533.11,52.68z"/>
</svg>
