<?xml version="1.0" encoding="utf-8"?>
<!-- Generator: Adobe Illustrator 16.0.0, SVG Export Plug-In . SVG Version: 6.00 Build 0)  -->
<!DOCTYPE svg PUBLIC "-//W3C//DTD SVG 1.1//EN" "http://www.w3.org/Graphics/SVG/1.1/DTD/svg11.dtd">
<svg version="1.1" id="Layer_1" xmlns="http://www.w3.org/2000/svg" xmlns:xlink="http://www.w3.org/1999/xlink" x="0px" y="0px"
	 width="212px" height="52px" viewBox="0 0 212 52" enable-background="new 0 0 212 52" xml:space="preserve">
<g>
	<path fill-rule="evenodd" clip-rule="evenodd" d="M14.834,18.855h2.497H17.5h3.435c4.318,0.038,7.847,3.849,7.847,8.504
		c0,4.674-3.529,8.484-7.847,8.521H17.5l0,0h-0.319h-2.347V18.855L14.834,18.855z M17.5,20.92v12.953h2.741
		c3.942-0.113,5.895-3.172,5.895-6.439c0-3.247-1.99-5.894-5.2-6.438L17.5,20.92L17.5,20.92z M39.051,18.461
		c5.181,0,9.405,4.017,9.405,8.916c0,4.9-4.224,8.898-9.405,8.898c-5.163,0-9.386-3.998-9.386-8.898
		C29.665,22.478,33.889,18.461,39.051,18.461L39.051,18.461z M39.089,20.62c3.754,0,6.814,3.022,6.814,6.74
		c0,3.697-3.06,6.721-6.814,6.721s-6.833-3.023-6.833-6.721C32.255,23.642,35.334,20.62,39.089,20.62L39.089,20.62z M49.188,18.893
		h2.515V33.91h4.806v1.953h-4.806h-1.145h-1.37V18.893L49.188,18.893z M64.676,18.367c1.952,0,3.773,0.582,5.275,1.558v3.098
		c-1.258-1.502-3.135-2.479-5.256-2.479c-3.754,0-6.814,3.06-6.814,6.815c0,3.736,3.06,6.795,6.814,6.795
		c2.121,0,3.999-0.977,5.256-2.477v3.135c-1.502,0.994-3.323,1.576-5.275,1.576c-5.181,0-9.405-4.055-9.405-9.012
		C55.271,22.422,59.495,18.367,64.676,18.367L64.676,18.367z M73.386,33.854h6.082v2.01h-6.082h-2.647v-2.01v-5.932v-2.064v-5.05
		v-1.915h2.647h6.082v1.915h-6.082v5.05h6.082v2.064h-6.082V33.854L73.386,33.854z M89.042,34.793
		c-0.263,0.244-0.563,0.469-0.939,0.639c-0.356,0.188-0.713,0.318-1.107,0.375c-0.094,0.02-0.188,0.037-0.282,0.037
		c-0.094,0.02-0.188,0.02-0.281,0.02c-0.263,0-0.526-0.037-0.789-0.094c-0.244-0.076-0.488-0.188-0.713-0.357
		c-0.244-0.188-0.432-0.432-0.582-0.732c-0.169-0.281-0.263-0.582-0.3-0.9c0-0.037,0-0.074,0-0.113
		c-0.019-0.055-0.019-0.094-0.019-0.131s0-0.057,0.019-0.094c0-0.037,0-0.074,0-0.113c0,0,0-0.018,0-0.037
		c0.019-0.018,0.019-0.018,0.019-0.037s0-0.037,0-0.076c0-0.018,0-0.037,0-0.055c0.113-0.525,0.357-0.939,0.732-1.277
		c0.356-0.338,0.751-0.639,1.164-0.883c-0.225-0.262-0.432-0.545-0.619-0.826c-0.188-0.262-0.282-0.582-0.282-0.9
		c0-0.057,0-0.094,0-0.15c0.019-0.037,0.019-0.074,0.019-0.131c0.019,0,0.019-0.02,0.019-0.037v-0.02
		c0.019-0.037,0.019-0.057,0.019-0.076c0-0.018,0.019-0.037,0.019-0.055c0.094-0.414,0.3-0.732,0.638-0.959
		c0.319-0.205,0.676-0.338,1.051-0.355c0.019,0,0.019,0,0.038,0s0.038,0,0.057,0c0.037,0,0.056,0,0.075,0s0.056,0,0.075,0
		c0.451,0.037,0.882,0.207,1.258,0.506c0.375,0.283,0.563,0.695,0.563,1.24c0,0.506-0.169,0.92-0.469,1.219
		c-0.3,0.32-0.657,0.602-1.033,0.865l1.802,2.178c0.169-0.207,0.357-0.414,0.526-0.621c0.15-0.205,0.319-0.432,0.451-0.656
		l0.619,0.639c-0.112,0.207-0.244,0.412-0.394,0.582c-0.131,0.168-0.282,0.355-0.432,0.525c-0.038,0.037-0.075,0.074-0.113,0.113
		c-0.038,0.037-0.075,0.074-0.113,0.111l1.314,1.596h-1.164L89.042,34.793L89.042,34.793z M86.771,35.037
		c0.319-0.037,0.619-0.131,0.882-0.301c0.263-0.168,0.507-0.355,0.75-0.563c0.019,0,0.038-0.02,0.057-0.037
		c0.019,0,0.038-0.02,0.056-0.039l-2.046-2.439c-0.019,0-0.019,0.02-0.038,0.037c-0.019,0-0.038,0.02-0.057,0.037
		c-0.037,0.02-0.056,0.039-0.094,0.057c-0.019,0-0.037,0.02-0.056,0.037c-0.169,0.113-0.319,0.227-0.469,0.338
		c-0.15,0.113-0.282,0.264-0.395,0.414c-0.038,0.074-0.094,0.15-0.131,0.244c-0.038,0.074-0.075,0.168-0.094,0.262
		c-0.019,0.076-0.038,0.15-0.056,0.227c-0.019,0.074-0.019,0.15-0.019,0.225c0,0.395,0.15,0.752,0.451,1.07
		c0.282,0.301,0.657,0.469,1.107,0.469c0,0,0.019,0,0.019-0.018c0.019,0,0.038,0,0.056,0h0.019c0.019,0,0.019-0.02,0.038-0.02
		H86.771L86.771,35.037z M86.02,29.086v0.02c0,0.018,0,0.037,0,0.037c0,0.018-0.019,0.037-0.019,0.057c0,0,0,0.018,0,0.037
		c0,0.207,0.056,0.395,0.169,0.563c0.112,0.188,0.244,0.357,0.394,0.508c0.038,0.057,0.094,0.111,0.131,0.168
		s0.094,0.094,0.131,0.15c0.038-0.018,0.056-0.037,0.094-0.057c0.019-0.018,0.056-0.037,0.094-0.037
		c0.225-0.131,0.413-0.281,0.601-0.451c0.188-0.168,0.3-0.375,0.338-0.637c0-0.02,0-0.039,0-0.057c0-0.02,0-0.037,0-0.057
		s0.019-0.037,0.019-0.057c0-0.018,0-0.037,0-0.037c0-0.264-0.094-0.488-0.281-0.639c-0.188-0.168-0.395-0.262-0.62-0.281
		c-0.019,0-0.038,0-0.056,0c-0.019,0-0.038,0-0.057,0H86.94c-0.019,0-0.019,0-0.038,0c-0.188,0-0.375,0.074-0.544,0.188
		C86.17,28.635,86.058,28.822,86.02,29.086L86.02,29.086z M104.755,18.292c3.379,0,6.364,1.727,8.035,4.299l-2.196,1.126
		c-1.221-1.934-3.38-3.21-5.82-3.21c-3.792-0.019-6.871,3.06-6.871,6.852c0,3.773,3.079,6.852,6.871,6.852
		c3.191,0,5.707-1.596,5.894-4.918h-5.481v-2.009h5.351c0-0.038,2.722,0,2.891,0c0,0.019,0-5.219,0,0.093
		c0,5.314-2.891,9.086-8.673,9.086c-5.801,0-9.48-4.092-9.48-9.086C95.275,22.384,99.536,18.292,104.755,18.292L104.755,18.292z
		 M112.001,35.863l7.021-17.027h1.67l7.078,17.027h-2.76l-1.952-4.807h-6.439l-1.915,4.807H112.001L112.001,35.863z M117.596,28.898
		l2.271-6.044l2.309,6.044H117.596L117.596,28.898z M152.437,35.863l7.021-17.027h1.671l7.077,17.027h-2.76l-1.952-4.807h-6.439
		l-1.914,4.807H152.437L152.437,35.863z M158.05,28.898l2.253-6.044l2.309,6.044H158.05L158.05,28.898z M186.152,35.863
		l7.021-17.027h1.67l7.077,17.027h-2.759l-1.953-4.807h-6.438l-1.915,4.807H186.152L186.152,35.863z M191.747,28.898l2.271-6.044
		l2.31,6.044H191.747L191.747,28.898z M133.853,20.826c1.671,0.188,2.29,0.901,2.29,2.572c0.019,1.671-1.127,2.553-2.591,2.553
		h-2.215v-5.144h2.516V20.826L133.853,20.826z M133.983,28.016c0.038,0,0.094,0,0.132,0c1.239,0,3.454,0.281,3.454,3.041
		c0,2.217-1.934,2.854-3.773,2.836l0.45,0.018h-2.909v-5.895h2.215H133.983L133.983,28.016L133.983,28.016z M130.718,35.863h0.619
		h3.754h0.02l0,0c3.003,0,5.162-1.971,5.162-4.807c0-2.178-1.352-3.848-3.267-4.505c1.089-0.694,1.709-1.934,1.709-3.51
		c0-2.572-1.728-4.149-4.281-4.205c-1.389-0.019-2.797,0-4.204,0c-0.019,0-0.057,0-0.075,0s-0.038,0-0.057,0
		c-0.037,0-0.057,0-0.075,0h-1.332v17.027H130.718L130.718,35.863z M146.749,20.826c1.671,0.188,2.29,0.901,2.309,2.572
		c0.02,1.671-1.126,2.553-2.59,2.553h-2.216v-5.144h2.497V20.826L146.749,20.826z M146.899,28.016c0.037,0,0.075,0,0.131,0
		c1.221,0,3.454,0.281,3.454,3.041c0,2.217-1.952,2.854-3.772,2.836l0.432,0.018h-2.892v-5.895h2.216H146.899L146.899,28.016
		L146.899,28.016z M143.633,35.863h0.619h3.755h0.019l0,0c2.984,0,5.162-1.971,5.162-4.807c0-2.178-1.37-3.848-3.285-4.505
		c1.107-0.694,1.709-1.934,1.709-3.51c0-2.572-1.728-4.149-4.262-4.205c-1.408-0.019-2.815,0-4.224,0c-0.019,0-0.038,0-0.057,0
		s-0.057,0-0.075,0s-0.037,0-0.075,0h-1.313v17.027H143.633L143.633,35.863z M169.332,18.893h1.614l11.921,12.596V18.893h2.309
		v16.971h-1.764l-11.677-12.465v12.465h-2.403V18.893L169.332,18.893z"/>
</g>
</svg>
